<?xml version="1.0" encoding="utf-8"?>
<!-- Generator: Adobe Illustrator 13.0.0, SVG Export Plug-In . SVG Version: 6.00 Build 14948)  -->
<!DOCTYPE svg PUBLIC "-//W3C//DTD SVG 1.1//EN" "http://www.w3.org/Graphics/SVG/1.1/DTD/svg11.dtd">
<svg version="1.1" id="Layer_1" xmlns="http://www.w3.org/2000/svg" xmlns:xlink="http://www.w3.org/1999/xlink" x="0px" y="0px"
	 width="500px" height="500px" viewBox="0 0 500 500" enable-background="new 0 0 500 500" xml:space="preserve">
<title></title>
<g id="Layer_58">
	<path fill="#FD6925" d="M250,406.25c-17.259,0-31.25-13.991-31.25-31.25s13.991-31.25,31.25-31.25s31.25,13.991,31.25,31.25
		S267.259,406.25,250,406.25z"/>
	<path fill="#FD6925" d="M250,312.5c-8.629,0-15.625-6.996-15.625-15.625v-125c0-8.629,6.996-15.625,15.625-15.625
		c8.629,0,15.625,6.996,15.625,15.625v125C265.625,305.504,258.629,312.5,250,312.5z"/>
	<path fill="#FD6925" d="M434.063,468.75H65.938c-17.769,0.122-34.258-9.224-43.281-24.531c-9.028-14.964-9.386-33.607-0.938-48.906
		L205.781,57.344c13.436-24.421,44.125-33.327,68.545-19.892c8.383,4.611,15.281,11.51,19.893,19.892l184.063,337.969
		c8.448,15.299,8.091,33.942-0.938,48.906C468.32,459.526,451.831,468.872,434.063,468.75z M250,62.5
		c-6.988-0.153-13.462,3.659-16.719,9.844L49.219,410.156c-3.373,5.571-3.373,12.554,0,18.125c3.254,5.578,9.169,9.067,15.625,9.219
		h369.219c6.456-0.151,12.371-3.641,15.625-9.219c3.372-5.571,3.372-12.554,0-18.125L266.719,72.344
		C263.463,66.159,256.988,62.347,250,62.5z"/>
</g>
</svg>
